<?xml version="1.0" standalone="no"?>
<!DOCTYPE svg PUBLIC "-//W3C//DTD SVG 20010904//EN"
 "http://www.w3.org/TR/2001/REC-SVG-20010904/DTD/svg10.dtd">
<svg version="1.0" xmlns="http://www.w3.org/2000/svg"
 width="32.000000pt" height="32.000000pt" viewBox="0 0 32.000000 32.000000"
 preserveAspectRatio="xMidYMid meet">

<g transform="translate(0.000000,32.000000) scale(0.100000,-0.100000)"
fill="#000000" stroke="none">
<path d="M170 225 c-7 -8 -10 -26 -8 -40 4 -18 1 -25 -10 -25 -10 0 -13 8 -10
30 3 17 1 33 -4 36 -4 3 -8 -3 -8 -13 0 -11 -5 -24 -10 -29 -12 -12 1 -57 20
-69 8 -5 5 -11 -7 -20 -10 -8 -14 -17 -9 -22 5 -4 11 -2 13 5 3 6 9 12 15 12
6 0 8 -7 4 -15 -6 -17 12 -20 34 -5 13 9 12 12 -4 25 -19 15 -19 15 -1 29 14
10 19 25 18 56 -2 50 -14 67 -33 45z"/>
<path d="M221 225 c10 -11 19 -29 22 -40 4 -19 5 -19 6 1 0 11 -9 29 -21 40
-23 19 -23 19 -7 -1z"/>
<path d="M95 200 c-4 -6 -11 -7 -17 -4 -7 4 -8 2 -4 -5 4 -6 0 -14 -8 -17 -34
-13 -15 -62 34 -89 11 -6 10 -3 -2 12 -20 21 -24 58 -8 68 16 10 32 45 21 45
-5 0 -13 -5 -16 -10z"/>
<path d="M255 157 c-4 -10 -19 -24 -34 -32 -23 -13 -24 -14 -5 -15 25 0 58 33
51 52 -3 9 -7 8 -12 -5z"/>
</g>
</svg>
