<?xml version="1.0" standalone="no"?>
<!DOCTYPE svg PUBLIC "-//W3C//DTD SVG 20010904//EN"
 "http://www.w3.org/TR/2001/REC-SVG-20010904/DTD/svg10.dtd">
<svg version="1.0" xmlns="http://www.w3.org/2000/svg"
 width="16.000000pt" height="16.000000pt" viewBox="0 0 16.000000 16.000000"
 preserveAspectRatio="xMidYMid meet">

<g transform="translate(0.000000,16.000000) scale(0.100000,-0.100000)"
fill="#000000" stroke="none">
<path d="M82 98 c-5 -19 -6 -20 -12 -4 -6 17 -7 17 -28 -1 -21 -16 -22 -20 -8
-38 15 -20 15 -20 10 1 -3 12 -1 25 5 28 9 6 13 -6 10 -30 -1 -7 22 -24 32
-24 3 0 7 20 7 45 2 48 -6 60 -16 23z"/>
</g>
</svg>
