<?xml version="1.0" standalone="no"?>
<!DOCTYPE svg PUBLIC "-//W3C//DTD SVG 20010904//EN"
 "http://www.w3.org/TR/2001/REC-SVG-20010904/DTD/svg10.dtd">
<svg version="1.0" xmlns="http://www.w3.org/2000/svg"
 width="192.000000pt" height="192.000000pt" viewBox="0 0 192.000000 192.000000"
 preserveAspectRatio="xMidYMid meet">

<g transform="translate(0.000000,192.000000) scale(0.100000,-0.100000)"
fill="#000000" stroke="none">
<path d="M950 1651 c0 -22 5 -43 10 -46 6 -4 10 10 10 34 0 22 -4 43 -10 46
-6 4 -10 -10 -10 -34z"/>
<path d="M1011 1574 c0 -11 3 -14 6 -6 3 7 2 16 -1 19 -3 4 -6 -2 -5 -13z"/>
<path d="M900 1481 c-119 -39 -140 -79 -165 -323 -5 -47 -10 -58 -24 -58 -10
0 -25 -8 -34 -18 -22 -24 -23 -90 -2 -98 10 -4 15 -21 15 -53 0 -104 66 -202
156 -231 32 -11 34 -14 34 -55 l0 -44 -56 -16 c-72 -21 -99 -39 -114 -75 -27
-65 26 -102 176 -122 100 -14 227 0 278 30 83 49 40 136 -82 167 -45 12 -47
14 -53 54 l-5 41 61 29 c92 43 135 110 135 212 0 27 4 49 9 49 5 0 14 13 20
28 16 38 -1 81 -37 94 l-27 10 3 127 c3 108 0 131 -16 161 -30 55 -96 90 -178
95 -38 3 -80 1 -94 -4z m178 -30 c48 -24 80 -60 91 -99 11 -37 -7 -242 -22
-257 -6 -7 -7 2 -4 25 4 19 9 80 13 136 l7 100 -33 37 c-18 20 -35 37 -39 37
-3 0 -5 -20 -3 -45 l4 -45 -66 0 c-58 0 -66 -2 -66 -19 0 -15 10 -20 60 -25
76 -9 69 -26 -11 -26 -51 0 -59 -2 -59 -19 0 -15 10 -20 53 -26 83 -11 91 -24
14 -25 -65 0 -68 -1 -65 -22 2 -17 11 -24 33 -26 72 -6 81 -16 20 -22 -53 -4
-60 -8 -63 -27 -3 -20 1 -23 30 -24 37 -1 91 -16 68 -19 -8 -1 -35 -2 -60 -3
-38 -2 -45 -5 -45 -22 0 -16 10 -21 55 -29 30 -5 50 -11 44 -13 -6 -2 -9 -16
-6 -31 2 -18 -2 -33 -12 -41 -14 -12 -16 -10 -16 19 0 48 -24 32 -30 -21 l-6
-44 -8 47 c-10 57 -26 54 -26 -5 0 -49 -17 -39 -22 13 -4 50 -22 43 -28 -10
-4 -39 -6 -41 -12 -20 -4 14 -8 35 -8 48 0 12 -4 22 -10 22 -5 0 -10 -17 -10
-37 0 -28 -3 -34 -10 -23 -5 8 -10 25 -10 38 0 12 -5 22 -11 22 -5 0 -7 5 -4
10 3 6 0 10 -7 10 -26 0 16 20 43 20 30 0 45 23 26 39 -7 5 -27 8 -45 5 -19
-3 -32 -1 -32 5 0 10 17 16 65 23 12 2 21 12 23 26 3 20 -1 22 -37 22 -54 0
-53 18 2 22 34 2 42 7 42 23 0 17 -9 21 -50 26 -53 5 -45 16 15 21 28 2 36 8
38 26 3 19 -1 22 -35 22 -65 0 -73 17 -12 27 44 7 54 12 54 28 0 17 -6 20 -42
18 l-41 -2 9 32 c13 45 2 46 -17 1 -9 -21 -21 -86 -26 -144 -10 -125 -16 -148
-17 -65 -1 96 17 207 37 235 11 14 36 35 58 47 52 30 167 32 222 4z m-317
-456 c-2 -62 2 -92 14 -115 10 -19 12 -29 5 -25 -26 16 -38 70 -32 153 6 107
17 97 13 -13z m-38 66 c-5 -20 -33 -38 -33 -22 0 20 13 41 25 41 8 0 11 -8 8
-19z m464 -6 c-14 -29 -27 -33 -27 -7 0 22 8 32 26 32 9 0 10 -6 1 -25z m-45
-7 c-7 -7 -12 -8 -12 -2 0 14 12 26 19 19 2 -3 -1 -11 -7 -17z m-412 -122 c0
-77 24 -119 90 -156 38 -21 58 -25 130 -25 144 0 195 42 216 175 l12 75 1 -59
c2 -130 -67 -196 -215 -204 -72 -4 -89 -1 -137 21 -79 36 -108 79 -115 167 -3
49 -1 70 7 70 7 0 11 -23 11 -64z m394 -13 c-9 -39 -30 -70 -56 -84 -16 -9
-13 -3 10 18 19 19 32 41 32 55 0 22 7 38 17 38 2 0 1 -12 -3 -27z m-184 -293
c0 -22 -4 -40 -10 -40 -5 0 -10 18 -10 40 0 22 5 40 10 40 6 0 10 -18 10 -40z
m0 -75 c0 -14 -4 -25 -9 -25 -5 0 -11 11 -13 25 -4 17 -1 25 8 25 8 0 14 -11
14 -25z m-178 -7 c-19 -19 -14 -37 13 -50 21 -10 32 -8 63 10 35 19 43 20 88
9 37 -9 48 -16 46 -30 -2 -14 5 -17 40 -18 l43 -2 -50 -7 c-96 -15 -247 17
-261 55 -6 14 11 45 24 45 3 0 1 -5 -6 -12z m408 -23 c0 -8 -3 -16 -7 -18 -5
-3 -8 5 -8 18 0 13 3 21 8 18 4 -2 7 -10 7 -18z m-225 -85 c28 -7 28 -8 -10
-8 -22 0 -53 4 -70 8 -28 7 -28 8 10 8 22 0 54 -4 70 -8z"/>
<path d="M911 1428 c-9 -25 -3 -45 9 -31 14 15 22 53 10 53 -6 0 -14 -10 -19
-22z"/>
<path d="M954 1425 c-4 -14 -3 -29 0 -33 9 -8 26 18 26 41 0 26 -19 20 -26 -8z"/>
<path d="M1001 1428 c-9 -24 -6 -38 8 -38 12 0 20 49 10 56 -5 3 -13 -5 -18
-18z"/>
<path d="M867 1421 c-5 -22 1 -33 14 -25 12 7 12 44 0 44 -5 0 -11 -9 -14 -19z"/>
<path d="M1040 1414 c0 -31 23 -28 28 4 2 15 -2 22 -12 22 -11 0 -16 -9 -16
-26z"/>
<path d="M1176 1483 c-12 -13 -5 -21 52 -56 70 -43 161 -137 192 -197 42 -82
38 -198 -9 -260 l-19 -24 -20 24 c-14 17 -24 22 -30 15 -6 -5 -45 -75 -87
-154 -59 -112 -73 -146 -63 -153 22 -15 318 9 336 27 3 3 -1 16 -8 29 -12 23
-10 29 33 76 61 67 80 127 75 233 -3 67 -9 95 -35 150 -68 143 -213 253 -384
291 -14 3 -29 3 -33 -1z m161 -59 c153 -73 260 -216 271 -362 5 -73 -14 -160
-43 -197 -10 -14 -9 -6 5 25 11 25 19 63 19 85 l0 40 -16 -30 c-22 -42 -74
-95 -87 -89 -6 3 -2 -2 8 -10 17 -14 15 -20 -6 -18 -3 1 -12 -5 -18 -13 -7 -8
-9 -15 -5 -15 4 0 2 -6 -4 -14 -10 -11 -9 -22 5 -48 l17 -33 -25 23 c-31 29
-51 28 -68 -2 -10 -21 -23 -26 -69 -31 -31 -3 -68 -12 -83 -20 -34 -17 -34
-15 -4 33 13 21 46 81 72 133 46 91 48 93 58 67 5 -16 13 -28 17 -28 4 0 27
22 51 49 68 75 85 158 51 257 -23 68 -118 161 -215 209 -97 48 -34 38 69 -11z"/>
<path d="M575 1274 c-133 -26 -184 -57 -138 -83 15 -8 10 -17 -40 -70 -154
-161 -150 -355 9 -501 61 -55 234 -146 259 -136 23 9 18 32 -12 52 -91 59
-164 155 -183 239 -13 57 6 145 46 212 22 37 28 42 52 37 27 -6 30 -1 90 114
34 66 62 127 62 136 0 20 -45 20 -145 0z m95 -11 c-8 -3 -26 -19 -40 -35 -14
-16 -51 -43 -83 -61 -68 -38 -168 -121 -191 -158 -9 -15 -22 -51 -30 -80 -13
-49 -15 -51 -15 -19 -1 68 75 194 149 245 47 32 50 42 14 51 -39 10 -15 25 73
45 73 16 156 24 123 12z"/>
</g>
</svg>
