<?xml version="1.0" standalone="no"?>
<!DOCTYPE svg PUBLIC "-//W3C//DTD SVG 20010904//EN"
 "http://www.w3.org/TR/2001/REC-SVG-20010904/DTD/svg10.dtd">
<svg version="1.0" xmlns="http://www.w3.org/2000/svg"
 width="180.000000pt" height="180.000000pt" viewBox="0 0 180.000000 180.000000"
 preserveAspectRatio="xMidYMid meet">

<g transform="translate(0.000000,180.000000) scale(0.100000,-0.100000)"
fill="#000000" stroke="none">
<path d="M897 1573 c-11 -10 -8 -51 3 -58 6 -4 10 8 10 29 0 37 -2 41 -13 29z"/>
<path d="M945 1480 c3 -5 8 -10 11 -10 2 0 4 5 4 10 0 6 -5 10 -11 10 -5 0 -7
-4 -4 -10z"/>
<path d="M855 1391 c-76 -19 -127 -64 -145 -130 -5 -20 -12 -80 -16 -133 -7
-95 -7 -97 -33 -100 -17 -2 -31 -13 -40 -33 -12 -26 -12 -32 4 -60 9 -16 21
-59 25 -94 11 -84 47 -136 117 -171 50 -24 52 -27 52 -67 1 -39 -1 -42 -31
-48 -49 -11 -106 -42 -118 -66 -23 -41 -9 -72 44 -98 93 -46 326 -40 390 10
60 47 19 117 -83 145 -61 17 -61 17 -61 55 0 36 3 39 48 59 86 38 132 100 132
176 0 20 10 57 22 81 20 41 21 47 7 71 -8 15 -25 32 -37 37 -23 10 -23 12 -16
121 6 103 5 115 -15 151 -44 77 -148 117 -246 94z m154 -31 c21 -10 51 -34 66
-52 l28 -33 -7 -114 c-4 -63 -12 -122 -17 -130 -7 -12 -9 -2 -5 34 19 174 19
181 1 219 -10 20 -26 41 -36 47 -17 9 -19 6 -19 -31 l0 -40 -60 0 c-52 0 -60
-2 -60 -19 0 -15 10 -20 55 -26 73 -9 70 -25 -5 -25 -53 0 -60 -2 -60 -20 0
-14 7 -20 24 -20 40 0 86 -12 86 -23 0 -6 -20 -7 -55 -3 -54 6 -55 6 -55 -19
0 -20 5 -25 24 -25 13 0 39 -3 57 -7 31 -7 29 -8 -26 -13 -52 -4 -60 -8 -60
-25 0 -16 9 -21 42 -26 62 -8 65 -19 6 -19 -36 0 -53 -4 -57 -15 -7 -18 23
-35 63 -35 16 0 33 -4 36 -10 3 -5 1 -10 -5 -10 -7 0 -9 -7 -6 -16 3 -9 0 -25
-8 -36 -14 -20 -15 -20 -18 6 -5 39 -22 32 -29 -11 -6 -35 -11 -28 -13 19 -3
37 -21 21 -26 -22 -4 -33 -7 -40 -12 -27 -5 10 -8 32 -8 48 0 16 -4 29 -10 29
-5 0 -10 -21 -10 -47 0 -35 -3 -44 -10 -33 -5 8 -10 27 -10 42 0 15 -4 30 -10
33 -6 4 -10 -9 -10 -32 0 -28 -3 -34 -10 -23 -5 8 -10 25 -10 38 0 12 -5 22
-11 22 -5 0 -8 4 -5 9 4 5 0 11 -6 14 -7 2 6 7 30 11 32 6 42 12 42 27 0 16
-7 19 -41 19 -24 0 -38 4 -34 10 3 6 21 10 40 10 21 0 35 6 39 16 10 25 -2 34
-47 34 -31 0 -38 3 -27 10 8 5 30 10 48 10 25 0 32 4 32 20 0 17 -7 20 -38 20
-58 0 -60 14 -5 26 32 7 49 16 51 27 3 14 -4 17 -37 17 -22 0 -42 4 -45 9 -6
10 26 21 62 21 15 0 22 6 22 20 0 17 -7 20 -39 20 -39 0 -40 0 -31 30 6 20 5
28 -1 24 -16 -10 -30 -55 -35 -114 -3 -30 -9 -86 -14 -125 -7 -59 -8 -52 -4
45 3 63 9 131 15 151 10 38 44 76 87 95 44 20 147 17 191 -6z m-341 -381 c-18
-12 -23 8 -6 28 12 15 13 15 16 -2 2 -10 -2 -21 -10 -26z m454 23 c-7 -2 -12
-12 -12 -23 0 -10 -4 -19 -10 -19 -5 0 -10 11 -10 24 0 24 17 38 35 28 5 -3 4
-7 -3 -10z m-410 -71 c-3 -50 0 -79 12 -102 19 -37 14 -52 -5 -17 -15 25 -29
179 -16 171 4 -2 7 1 7 6 0 6 1 11 3 11 1 0 1 -31 -1 -69z m368 65 c0 -3 -4
-8 -10 -11 -5 -3 -10 -1 -10 4 0 6 5 11 10 11 6 0 10 -2 10 -4z m-369 -227
c34 -48 90 -69 184 -69 65 0 88 5 119 23 46 26 76 77 77 132 0 22 4 49 9 60
14 31 12 -65 -1 -106 -40 -118 -220 -167 -345 -94 -64 38 -84 75 -83 155 l2
65 7 -67 c6 -44 16 -79 31 -99z m340 80 c-9 -22 -10 -22 -10 -3 -1 11 2 24 6
27 12 12 14 0 4 -24z m-11 -32 c0 -2 -12 -14 -27 -28 l-28 -24 24 28 c23 25
31 32 31 24z m-160 -237 c0 -22 -4 -40 -10 -40 -5 0 -10 18 -10 40 0 22 5 40
10 40 6 0 10 -18 10 -40z m0 -70 c0 -11 -4 -20 -10 -20 -5 0 -10 9 -10 20 0
11 5 20 10 20 6 0 10 -9 10 -20z m-171 -16 c-11 -14 -10 -18 6 -30 24 -18 37
-18 73 3 39 22 129 8 124 -19 -2 -13 6 -18 35 -21 21 -2 -1 -4 -48 -5 -131 -3
-231 34 -199 73 7 8 15 15 17 15 3 0 -1 -7 -8 -16z m382 -26 c-11 -11 -13 -10
-7 0 4 7 2 21 -5 30 -12 15 -11 15 6 0 16 -15 17 -20 6 -30z m-210 -74 c-15
-11 -25 -13 -30 -6 -3 5 -17 12 -31 15 -14 2 0 5 30 6 53 1 54 1 31 -15z"/>
<path d="M857 1353 c-11 -10 -8 -43 3 -43 6 0 10 4 10 9 0 5 3 16 6 25 6 16
-7 22 -19 9z"/>
<path d="M895 1339 c-4 -11 -4 -23 0 -27 7 -7 25 17 25 36 0 20 -18 14 -25 -9z"/>
<path d="M940 1340 c-8 -15 -9 -25 -1 -33 7 -7 12 -2 17 17 8 35 -1 44 -16 16z"/>
<path d="M817 1343 c-10 -10 -8 -45 2 -39 11 7 21 46 12 46 -4 0 -11 -3 -14
-7z"/>
<path d="M975 1329 c-8 -23 -1 -34 14 -24 13 8 15 45 2 45 -5 0 -13 -9 -16
-21z"/>
<path d="M1100 1382 c0 -6 25 -28 56 -47 117 -75 192 -178 202 -276 6 -65 -3
-108 -32 -144 l-24 -30 -20 24 -19 25 -15 -25 c-50 -81 -138 -255 -134 -266 6
-16 74 -17 206 -3 103 11 121 20 103 49 -10 16 -7 25 23 56 54 57 77 111 82
191 6 91 -15 162 -71 246 -50 74 -140 146 -224 178 -71 27 -133 37 -133 22z
m93 -21 c177 -61 302 -206 314 -364 3 -34 1 -78 -5 -97 l-10 -35 -1 45 -2 45
-16 -30 c-20 -39 -64 -86 -74 -79 -4 2 -11 -1 -15 -7 -4 -8 -3 -9 4 -5 7 4 12
2 12 -4 0 -6 5 -8 10 -5 6 3 10 4 10 0 0 -3 -11 -10 -25 -15 -14 -5 -24 -13
-23 -17 0 -5 -2 -16 -6 -25 -5 -10 0 -28 10 -45 l18 -28 -25 23 c-30 26 -45
28 -65 7 -12 -12 -12 -15 -2 -16 25 -1 -28 -17 -82 -24 -30 -4 -61 -12 -67
-17 -7 -6 -13 -9 -13 -6 0 2 29 59 64 127 l64 124 14 -27 15 -28 45 51 c52 57
74 125 63 189 -16 96 -107 196 -230 253 -70 33 -62 37 18 10z m297 -509 c0 -5
-7 -17 -15 -28 -14 -18 -14 -17 -4 9 12 27 19 34 19 19z"/>
<path d="M580 1203 c-60 -10 -181 -46 -187 -56 -3 -5 2 -16 12 -23 16 -12 14
-18 -35 -71 -141 -154 -140 -324 3 -464 81 -79 267 -163 267 -121 0 5 -25 30
-55 54 -104 87 -144 156 -145 250 0 62 9 91 46 156 21 36 28 41 44 32 17 -9
23 -5 44 28 43 69 107 203 101 212 -6 10 -48 11 -95 3z m43 -23 c-12 -5 -28
-18 -35 -30 -7 -11 -41 -37 -76 -56 -118 -66 -194 -154 -215 -249 -3 -13 -5
-9 -6 11 -2 52 54 148 120 208 59 53 60 55 38 66 -20 11 -21 13 -5 22 22 13
133 36 171 37 27 0 28 -1 8 -9z"/>
</g>
</svg>
