<?xml version="1.0" standalone="no"?>
<!DOCTYPE svg PUBLIC "-//W3C//DTD SVG 20010904//EN"
 "http://www.w3.org/TR/2001/REC-SVG-20010904/DTD/svg10.dtd">
<svg version="1.0" xmlns="http://www.w3.org/2000/svg"
 width="512.000000pt" height="512.000000pt" viewBox="0 0 512.000000 512.000000"
 preserveAspectRatio="xMidYMid meet">

<g transform="translate(0.000000,512.000000) scale(0.100000,-0.100000)"
fill="#000000" stroke="none">
<path d="M2529 4473 c-7 -24 -9 -62 -5 -112 9 -103 11 -114 23 -118 17 -6 32
52 39 146 5 74 4 90 -11 104 -24 25 -32 21 -46 -20z"/>
<path d="M2380 4196 c0 -37 4 -66 10 -66 6 0 10 10 11 23 0 21 1 21 9 2 7 -14
9 -2 7 40 -2 48 -5 60 -19 63 -16 3 -18 -5 -18 -62z"/>
<path d="M2694 4246 c-3 -7 -4 -42 -2 -77 2 -49 7 -64 18 -64 12 0 16 17 18
78 2 65 0 77 -13 77 -9 0 -18 -6 -21 -14z"/>
<path d="M2840 4074 c0 -12 21 -44 29 -44 5 0 6 11 3 25 -2 14 -11 25 -18 25
-8 0 -14 -3 -14 -6z"/>
<path d="M2404 3950 c-186 -48 -318 -163 -373 -323 -21 -59 -42 -240 -62 -525
l-13 -174 -27 6 c-61 12 -148 -45 -170 -112 -10 -30 -9 -81 4 -167 2 -11 20
-29 40 -40 l37 -20 0 -105 c1 -242 75 -399 248 -528 65 -48 169 -104 232 -124
23 -8 16 -248 -7 -248 -9 0 -64 -14 -122 -31 -121 -34 -215 -83 -259 -133 -75
-86 -76 -206 -2 -268 20 -17 46 -33 56 -34 10 -1 50 -14 88 -29 120 -45 276
-66 496 -67 204 -1 312 12 443 52 89 28 181 89 196 130 53 154 -76 293 -327
351 -149 34 -138 23 -145 147 -6 121 -6 120 78 148 109 36 222 103 282 168
106 114 145 221 158 432 7 117 8 123 35 142 60 45 78 149 39 229 -25 52 -62
80 -128 96 l-50 12 5 55 c3 30 11 156 18 280 13 218 11 291 -13 368 -43 142
-213 278 -396 317 -99 21 -273 18 -361 -5z m349 -35 c102 -21 192 -70 268
-145 120 -118 129 -177 90 -585 -23 -231 -35 -285 -62 -285 -7 0 -7 6 2 16 11
14 9 20 -19 45 -35 31 -31 39 6 13 12 -8 22 -13 22 -11 0 3 4 49 10 103 24
241 39 456 33 486 -11 63 -61 156 -104 198 -43 42 -177 119 -150 86 7 -9 20
-16 29 -16 8 0 12 -3 9 -7 -4 -3 0 -15 10 -25 13 -14 16 -40 17 -123 1 -99 0
-104 -19 -100 -48 10 -117 15 -214 17 -118 1 -134 -8 -129 -72 l3 -35 75 -7
c132 -13 240 -29 263 -38 16 -7 7 -8 -33 -5 -30 2 -47 2 -37 -1 20 -6 23 -24
5 -25 -7 -1 7 -7 32 -15 26 -8 32 -12 15 -9 -16 2 -92 9 -168 15 -162 14 -167
12 -167 -61 0 -56 -10 -52 150 -69 58 -6 130 -17 160 -25 l55 -14 -60 4 c-33
2 -50 1 -37 -2 23 -5 31 -22 10 -24 -7 -1 -2 -5 12 -10 19 -7 14 -7 -20 -4
-25 3 -98 8 -162 12 l-117 6 -6 -25 c-4 -14 -5 -40 -3 -59 l3 -34 116 -12 c64
-7 142 -19 175 -27 l59 -15 -64 6 c-47 4 -62 3 -57 -6 4 -6 0 -11 -11 -12 -10
-1 5 -7 32 -15 l50 -13 -70 4 c-38 3 -104 7 -145 11 -92 7 -103 -1 -98 -73 l3
-48 100 -7 c100 -8 244 -33 254 -45 3 -3 -5 -3 -19 0 -14 3 -52 8 -85 11 -33
2 -50 2 -38 0 13 -3 20 -11 17 -19 -4 -9 4 -15 23 -18 32 -6 -105 1 -188 9
-44 4 -60 2 -72 -11 -20 -19 -23 -88 -4 -102 6 -6 66 -16 133 -22 118 -12 205
-28 157 -30 -49 -2 -53 -9 -53 -86 0 -41 -4 -77 -10 -80 -5 -3 -10 -11 -10
-17 0 -6 5 -7 13 -2 7 5 4 1 -6 -8 -29 -27 -37 -22 -39 25 -1 34 -3 30 -8 -23
l-7 -65 -1 75 c-3 86 -10 103 -43 98 -20 -2 -25 -11 -31 -53 -5 -27 -6 -72 -3
-100 3 -27 2 -44 -1 -37 -10 21 -24 13 -25 -15 l-1 -28 -8 25 c-4 14 -8 64 -9
111 -1 63 -5 90 -16 99 -19 16 -52 4 -59 -23 -8 -32 -7 -116 3 -160 8 -34 7
-37 -10 -32 -14 5 -19 1 -20 -12 -2 -45 -21 51 -27 137 -6 80 -10 95 -25 98
-35 7 -47 -16 -47 -92 0 -39 5 -88 9 -110 7 -27 6 -35 -1 -28 -6 6 -16 8 -23
6 -17 -7 -26 31 -34 136 -6 82 -7 85 -31 85 -25 0 -25 0 -25 -98 0 -94 -1 -97
-14 -65 -14 33 -14 33 -21 8 -6 -22 -7 -21 -13 15 -4 22 -7 61 -7 87 0 51 -9
63 -41 53 -19 -6 -21 -13 -17 -79 3 -39 8 -80 12 -91 5 -13 2 -11 -8 5 -19 31
-22 150 -4 168 7 7 21 12 32 12 17 0 18 2 6 10 -11 7 -11 10 -2 10 7 0 10 5 7
10 -4 6 -10 8 -15 5 -5 -3 -11 4 -15 15 -5 16 -15 20 -47 20 -80 0 -27 13 99
24 l128 11 6 43 c9 71 0 76 -132 70 -63 -2 -104 -3 -91 -1 12 3 27 13 32 24
10 17 7 19 -19 19 -41 0 -81 -17 -77 -32 1 -7 1 -10 -1 -5 -7 11 -23 -2 -23
-18 0 -10 6 -12 18 -8 16 7 16 6 0 -11 -22 -21 -26 -116 -5 -116 9 0 8 -3 -2
-9 -10 -7 -12 -33 -9 -117 5 -125 22 -175 84 -245 39 -42 31 -45 -15 -5 l-24
21 12 -22 c6 -12 28 -36 48 -53 21 -18 29 -27 17 -22 -39 20 -95 87 -127 152
-29 59 -32 72 -31 155 2 104 59 889 75 1015 31 255 217 398 519 399 58 0 136
-6 173 -14z m302 -753 c-3 -3 -11 0 -18 7 -9 10 -8 11 6 5 10 -3 15 -9 12 -12z
m-8 -159 c-3 -10 -5 -2 -5 17 0 19 2 27 5 18 2 -10 2 -26 0 -35z m-1102 -123
c3 -5 2 -10 -4 -10 -5 0 -11 -19 -13 -42 -3 -40 -5 -43 -33 -44 -28 0 -30 -2
-27 -33 2 -22 0 -31 -7 -26 -17 10 -13 98 6 125 9 14 22 28 27 32 16 11 44 10
51 -2z m1282 -22 c13 -12 23 -26 23 -31 0 -6 -11 -1 -23 12 -42 38 -66 11 -67
-74 0 -30 -3 -36 -10 -25 -8 12 -10 12 -10 1 0 -11 -4 -10 -19 3 -18 17 -19
17 -24 -1 -3 -10 -5 5 -6 32 -1 48 15 87 43 108 17 12 68 -1 93 -25z m-165
-39 c-5 -46 -10 -51 -32 -36 -14 8 -18 18 -14 32 17 54 51 58 46 4z m-1082 -9
c0 -11 -7 -20 -15 -20 -17 0 -18 2 -9 24 9 23 24 20 24 -4z m1205 -120 l20
-25 -22 19 c-13 11 -23 24 -23 29 0 6 1 8 3 6 1 -2 11 -15 22 -29z m-1245
-179 c0 -111 4 -152 20 -204 48 -155 191 -273 381 -313 108 -23 361 -15 442
14 137 50 225 124 279 234 28 56 39 126 53 321 6 75 9 88 23 85 15 -3 17 -17
14 -108 -6 -221 -38 -325 -132 -424 -99 -105 -254 -163 -456 -173 -225 -11
-408 49 -528 173 -21 22 -43 39 -49 39 -7 1 -11 7 -9 13 1 7 -9 28 -22 45 -37
48 -56 143 -56 284 0 129 4 153 26 153 11 0 14 -27 14 -139z m1078 58 l-3 -54
-5 62 c-3 34 -1 58 3 54 5 -4 7 -32 5 -62z m-51 -101 c-3 -7 -5 -2 -5 12 0 14
2 19 5 13 2 -7 2 -19 0 -25z m40 -17 c-12 -98 -93 -217 -178 -261 l-24 -13 24
27 c14 14 21 26 17 26 -5 0 -3 7 4 15 7 8 16 13 20 10 11 -7 67 50 86 87 15
29 20 52 24 118 2 33 3 33 10 10 l8 -25 1 28 c1 15 4 27 7 27 4 0 4 -22 1 -49z
m-509 -693 c8 -8 12 -48 12 -116 l0 -103 -27 3 -28 3 -3 113 c-2 103 -1 112
16 112 10 0 23 -5 30 -12z m-175 -225 c-7 -2 -19 -2 -25 0 -7 3 -2 5 12 5 14
0 19 -2 13 -5z m222 -25 l50 -1 -43 -4 -44 -4 4 -60 c2 -50 0 -59 -14 -59 -41
0 -48 11 -48 71 0 42 -4 59 -13 59 -7 0 -22 6 -33 14 -16 12 -11 12 36 0 30
-8 77 -15 105 -16z m-335 3 c-130 -35 -220 -91 -220 -135 0 -24 42 -67 88 -90
48 -24 119 -45 93 -27 -20 13 -5 30 50 56 27 12 46 24 43 27 -10 11 57 27 89
22 l32 -5 -28 16 c-39 22 -28 29 13 9 18 -9 73 -22 122 -28 49 -6 86 -14 82
-18 -4 -5 0 -8 9 -8 13 0 17 -9 17 -40 0 -30 5 -42 23 -52 21 -12 20 -13 -18
-20 -22 -4 9 -5 70 -3 119 4 220 22 308 55 61 23 117 68 117 94 0 44 -57 88
-170 132 -32 13 -33 14 -5 9 17 -3 63 -22 104 -43 123 -62 130 -108 26 -171
-93 -56 -230 -89 -415 -99 -246 -14 -436 14 -578 84 -114 56 -128 110 -42 169
47 33 191 85 230 84 14 0 -4 -9 -40 -18z m677 3 c-3 -3 -12 -4 -19 -1 -8 3 -5
6 6 6 11 1 17 -2 13 -5z m-602 -94 c-11 -5 -29 -9 -40 -9 l-20 0 20 9 c11 5
29 9 40 9 l20 0 -20 -9z m-339 -125 c3 -17 1 -24 -6 -20 -5 3 -10 18 -10 32 0
32 9 25 16 -12z m14 -80 c0 -5 -5 -3 -10 5 -5 8 -10 20 -10 25 0 6 5 3 10 -5
5 -8 10 -19 10 -25z m283 -32 c70 -13 149 -17 335 -17 171 -1 231 -4 200 -10
-24 -5 -135 -9 -248 -10 -182 -1 -215 2 -293 22 -49 12 -96 27 -105 33 -15 10
-15 10 1 5 9 -3 59 -13 110 -23z m215 -60 c-10 -2 -28 -2 -40 0 -13 2 -5 4 17
4 22 1 32 -1 23 -4z m-15 -50 c-7 -2 -21 -2 -30 0 -10 3 -4 5 12 5 17 0 24 -2
18 -5z"/>
<path d="M2568 3860 c-18 -11 -43 -111 -34 -136 7 -17 40 -18 54 -1 5 6 16 38
23 70 11 50 10 60 -2 68 -17 11 -20 11 -41 -1z"/>
<path d="M2437 3853 c-10 -17 -28 -123 -22 -133 9 -14 41 -13 53 3 9 11 32
103 32 127 0 12 -57 13 -63 3z"/>
<path d="M2682 3847 c-14 -17 -34 -107 -28 -124 8 -19 54 -16 60 5 21 68 26
116 14 124 -19 11 -34 10 -46 -5z"/>
<path d="M2325 3820 c-9 -17 -17 -47 -18 -68 -2 -33 0 -37 23 -37 20 0 26 7
36 40 27 95 27 95 -1 95 -17 0 -29 -9 -40 -30z"/>
<path d="M2783 3813 c-3 -16 -7 -46 -7 -68 -1 -36 2 -40 26 -43 23 -3 28 2 37
35 14 50 14 76 -1 91 -21 21 -47 14 -55 -15z"/>
<path d="M2184 3743 c-36 -39 -53 -75 -60 -127 l-7 -45 31 11 c18 7 28 17 25
25 -3 7 -1 13 5 13 5 0 13 28 17 63 4 34 12 68 17 75 20 24 -3 12 -28 -15z"/>
<path d="M2171 3574 c-36 -7 -69 -18 -74 -23 -5 -5 -11 -36 -14 -69 l-6 -60
44 14 c24 8 94 20 154 27 l110 12 9 43 c13 61 0 72 -88 71 -39 0 -100 -7 -135
-15z"/>
<path d="M2120 3423 c-8 -2 -21 -6 -27 -8 -9 -3 -10 -11 -4 -27 6 -16 4 -26
-6 -33 -9 -7 -17 -36 -20 -72 l-6 -62 49 15 c27 8 90 17 139 21 121 8 131 12
139 63 4 24 2 49 -5 61 -12 23 1 22 -194 4 -36 -4 -44 -2 -29 4 12 5 24 16 27
25 5 12 0 16 -21 15 -15 0 -34 -3 -42 -6z"/>
<path d="M2100 3221 c-16 -5 -25 -14 -25 -28 -1 -11 -6 -27 -12 -34 -6 -8 -14
-41 -18 -73 -6 -55 -5 -58 12 -52 26 11 145 33 228 43 l70 8 9 42 c16 78 4 81
-214 57 l-45 -5 30 15 c17 8 23 15 15 16 -11 1 -9 4 5 10 18 8 18 9 -5 8 -14
0 -36 -3 -50 -7z"/>
<path d="M2085 3033 c-31 -8 -47 -25 -42 -45 3 -10 1 -18 -3 -18 -5 0 -10 -29
-12 -66 -3 -61 -2 -65 17 -59 58 18 99 25 183 31 60 5 99 12 108 21 8 8 14 34
14 59 0 55 -10 58 -140 45 -52 -6 -96 -8 -99 -6 -2 3 1 5 7 5 7 0 12 6 12 14
0 8 8 17 18 19 9 3 4 5 -13 5 -16 0 -39 -3 -50 -5z"/>
<path d="M2688 2643 c6 -2 18 -2 25 0 6 3 1 5 -13 5 -14 0 -19 -2 -12 -5z"/>
<path d="M3124 3946 c-12 -32 5 -50 91 -100 240 -138 471 -360 562 -540 75
-148 113 -322 99 -448 -8 -68 -37 -156 -68 -207 -25 -41 -107 -131 -119 -131
-4 0 -10 13 -14 30 -10 46 -42 80 -76 80 -34 0 -37 -6 -190 -300 -56 -107
-129 -244 -162 -305 -34 -60 -70 -128 -81 -149 l-20 -39 23 -18 c19 -16 41
-19 127 -19 223 0 625 34 726 61 21 5 43 19 49 30 9 18 5 30 -27 75 l-37 55
90 92 c150 155 228 311 253 508 19 155 -14 361 -83 526 -161 381 -507 667
-948 783 -126 33 -187 38 -195 16z m135 -31 c144 -30 354 -125 505 -228 428
-293 625 -783 491 -1222 -34 -110 -86 -194 -180 -290 -44 -45 -52 -52 -19 -16
61 65 114 137 114 154 0 5 -9 -1 -20 -14 -11 -13 -3 10 19 51 47 89 66 159 80
298 16 147 15 148 -31 37 -62 -151 -107 -212 -228 -308 -33 -26 -34 -27 -9
-21 40 9 44 -13 7 -32 -53 -27 -122 -113 -104 -131 3 -3 41 31 86 75 44 45 76
72 70 62 -5 -10 -48 -53 -94 -96 l-84 -78 37 -55 c21 -31 48 -74 60 -96 21
-36 21 -37 2 -15 -11 14 -21 21 -21 17 0 -5 -24 12 -52 37 -47 41 -123 86
-146 86 -4 0 -7 -12 -6 -27 1 -30 -21 -63 -41 -63 -19 0 -26 -27 -10 -40 8 -7
27 -9 49 -4 20 3 36 4 36 1 0 -8 -212 -45 -355 -62 -122 -15 -132 -18 -162
-47 -37 -36 -53 -34 -25 3 33 41 176 306 278 512 54 108 101 197 104 197 3 0
18 -34 33 -75 l28 -75 42 29 c103 71 212 213 253 329 39 113 49 211 31 312
-46 266 -225 488 -541 669 -89 52 -232 121 -244 120 -21 -3 -42 2 -42 11 0 13
6 13 89 -5z m407 -347 l29 -33 -32 29 c-31 28 -38 36 -30 36 2 0 16 -15 33
-32z m444 -1331 c0 -2 -17 -19 -37 -38 l-38 -34 34 38 c33 34 41 42 41 34z"/>
<path d="M3999 2473 c-13 -16 -12 -17 4 -4 16 13 21 21 13 21 -2 0 -10 -8 -17
-17z"/>
<path d="M4203 2398 c-18 -39 -31 -74 -28 -76 7 -7 68 125 63 138 -1 5 -18
-23 -35 -62z"/>
<path d="M3935 2398 l-40 -43 43 40 c39 36 47 45 39 45 -2 0 -21 -19 -42 -42z"/>
<path d="M3869 2333 c-13 -16 -12 -17 4 -4 9 7 17 15 17 17 0 8 -8 3 -21 -13z"/>
<path d="M3910 2036 c0 -2 8 -10 18 -17 15 -13 16 -12 3 4 -13 16 -21 21 -21
13z"/>
<path d="M1647 3415 c-163 -29 -370 -79 -441 -107 -101 -39 -109 -68 -37 -125
l49 -39 -60 -50 c-34 -27 -94 -86 -134 -132 -138 -157 -211 -290 -249 -453
-32 -136 -16 -394 27 -446 6 -7 7 -13 4 -13 -4 0 -1 -12 7 -27 8 -16 29 -58
47 -95 117 -242 444 -493 807 -618 88 -31 94 -32 118 -16 18 12 25 25 25 49
-1 29 -10 39 -98 102 -105 76 -312 274 -312 300 0 8 -4 15 -8 15 -14 0 -110
203 -127 268 -32 127 -31 176 9 379 3 11 11 34 20 51 8 16 17 40 20 53 7 37
17 59 28 59 5 0 7 4 4 9 -4 5 -3 11 1 13 5 1 17 20 27 41 11 21 30 49 43 63
12 13 21 27 20 31 -1 3 5 10 14 16 13 8 23 5 44 -11 33 -27 67 -28 87 -4 43
48 338 627 338 662 0 14 -5 31 -12 38 -18 18 -106 13 -261 -13z m179 -30 c-9
-9 -48 -23 -88 -31 -82 -17 -96 -24 -50 -24 18 0 32 -3 32 -6 0 -4 -25 -35
-55 -69 -45 -52 -74 -73 -158 -116 -149 -76 -271 -162 -362 -253 -74 -74 -158
-169 -177 -199 -4 -7 -8 -7 -8 -2 0 18 36 65 45 58 4 -5 5 -2 1 4 -6 11 12 41
95 158 17 24 15 23 -10 -5 -55 -62 -132 -179 -163 -248 -61 -134 -80 -202 -85
-310 -3 -56 -10 -105 -16 -109 -6 -4 -8 40 -5 128 5 145 26 226 87 347 70 139
234 323 368 412 l71 48 -55 41 c-64 47 -120 60 -68 15 l30 -26 -32 22 c-18 12
-33 25 -33 29 0 26 329 109 550 140 103 14 104 14 86 -4z m-541 -203 c-3 -3
-11 0 -18 7 -9 10 -8 11 6 5 10 -3 15 -9 12 -12z m115 -236 c0 -2 -8 -10 -17
-17 -16 -13 -17 -12 -4 4 13 16 21 21 21 13z m-120 -117 c-38 -41 -86 -102
-106 -136 -20 -35 -38 -63 -41 -63 -5 0 31 68 54 102 26 37 155 180 159 175 2
-2 -28 -37 -66 -78z m117 -1251 c27 -24 66 -58 88 -76 34 -29 31 -27 -21 7
-57 39 -136 111 -121 111 3 0 28 -19 54 -42z"/>
<path d="M1094 3368 c3 -13 5 -25 6 -28 0 -3 5 3 11 13 10 18 5 37 -12 37 -5
0 -7 -10 -5 -22z"/>
</g>
</svg>
